<svg xmlns="http://www.w3.org/2000/svg" width="1024" height="1024" viewBox="0 0 1024 1024" role="img" aria-label="Rounded trash button">
<circle cx="512" cy="512" r="480" fill="#000000"/>
<g transform="translate(230 234.2) scale(1.2)">
<path d="M 62.5 84 L 135 84 C 144 84 147 80 150 72 L 158 52 C 164 31 182 20 205 20 L 266 20 C 290 20 307 34 314 55 L 320 73 C 323 81 328 84 337 84 L 408.5 84 C 417.6127 84 425 91.3873 425 100.5 C 425 109.6127 417.6127 117 408.5 117 L 406 117 C 398 117 394 121 393 129 L 365 389 C 361 420 338 442 308 442 L 166 442 C 134 442 112 421 107 392 L 78 129 C 77 121 73 117 65 117 L 62.5 117 C 53.3873 117 46 109.6127 46 100.5 C 46 91.3873 53.3873 84 62.5 84 Z" fill="#FFFFFF"/>
<path d="M 208 52 L 264 52 C 272 52 277 56 279 63 L 283 75 C 285 81 282 84 276 84 L 197 84 C 191 84 188 81 190 75 L 194 63 C 196 56 201 52 208 52 Z" fill="#000000"/>
<rect x="177" y="172" width="32" height="184" rx="16" fill="#000000"/>
<rect x="263" y="172" width="32" height="184" rx="16" fill="#000000"/>
</g></svg>
